# xmcd
#
# Track frame offsets:
#	150
#	23398
#	45810
#	75229
#	91718
#	126089
#	159330
#	194446
#	212892
#	233327
#	251216
#	287201
#	302075
#
# Disc length: 4325 seconds
#
# Revision: 0
# Processed by: cddbd v1.5PL3 Copyright (c) Steve Scherf et al.
# Submitted via: dBpowerAMP V4.0
#
DISCID=9510e30d
DTITLE=¸t¸g-ÂÂ¬ù - Disc 27
DYEAR=1900
DGENRE=
TTITLE0=27-01-¦C¤ý¬ö¤U²Ä13³¹
TTITLE1=27-02-¦C¤ý¬ö¤U²Ä14³¹
TTITLE2=27-03-¦C¤ý¬ö¤U²Ä15³¹
TTITLE3=27-04-¦C¤ý¬ö¤U²Ä16³¹
TTITLE4=27-05-¦C¤ý¬ö¤U²Ä17³¹
TTITLE5=27-06-¦C¤ý¬ö¤U²Ä18³¹
TTITLE6=27-07-¦C¤ý¬ö¤U²Ä19³¹
TTITLE7=27-08-¦C¤ý¬ö¤U²Ä20³¹
TTITLE8=27-09-¦C¤ý¬ö¤U²Ä21³¹
TTITLE9=27-10-¦C¤ý¬ö¤U²Ä22³¹
TTITLE10=27-11-¦C¤ý¬ö¤U²Ä23³¹
TTITLE11=27-12-¦C¤ý¬ö¤U²Ä24³¹
TTITLE12=27-13-¦C¤ý¬ö¤U²Ä25³¹
EXTD=
EXTT0=
EXTT1=
EXTT2=
EXTT3=
EXTT4=
EXTT5=
EXTT6=
EXTT7=
EXTT8=
EXTT9=
EXTT10=
EXTT11=
EXTT12=
PLAYORDER=
